<svg viewBox="0 0 660 400" role="img" aria-labelledby="diagram-title diagram-desc" xmlns="http://www.w3.org/2000/svg"><title id="diagram-title">本次nerve-reflex模型圖解</title><desc id="diagram-desc">與下方數值同步，完整數據見觀察結果。圖形為教學示意，請閱讀模型限制。</desc><defs><clipPath id="scene-clip"><rect width="660" height="400"></rect></clipPath></defs><g clip-path="url(#scene-clip)"><circle cx="150" cy="70" r="44" fill="#f2f4f7" stroke="#436779" stroke-width="3"></circle><text x="134" y="106" font-size="13">大腦</text><line x1="150" y1="114" x2="150" y2="262" stroke="#9aaeb9" stroke-width="3"></line><text x="96" y="214" font-size="13">脊髓</text><line x1="150" y1="130" x2="240" y2="180" stroke="#436779" stroke-width="3"></line><line x1="240" y1="180" x2="310" y2="178" stroke="#436779" stroke-width="3"></line><circle cx="324" cy="178" r="14" fill="#f2f4f7" stroke="#436779" stroke-width="3"></circle><line x1="150" y1="260" x2="250" y2="300" stroke="#436779" stroke-width="3"></line><line x1="250" y1="300" x2="232" y2="370" stroke="#436779" stroke-width="3"></line><circle cx="186" cy="58" r="5" fill="#436779"></circle><path d="M256,318 L205,302 L150,262" fill="none" stroke="#2f6fb2" stroke-width="4" stroke-linejoin="round"></path><path d="M150,262 L192,258 L222,284" fill="none" stroke="#d97b11" stroke-width="4" stroke-linejoin="round"></path><g data-step="1"><circle cx="256" cy="318" r="10" fill="#fff" stroke="#b54a5b" stroke-width="2"></circle><text x="256" y="323" font-size="12" text-anchor="middle">1</text></g><g data-step="2"><circle cx="205" cy="302" r="10" fill="#fff" stroke="#b54a5b" stroke-width="2"></circle><text x="205" y="307" font-size="12" text-anchor="middle">2</text></g><g data-step="3"><circle cx="150" cy="262" r="10" fill="#fff" stroke="#b54a5b" stroke-width="2"></circle><text x="150" y="267" font-size="12" text-anchor="middle">3</text></g><g data-step="4"><circle cx="192" cy="258" r="10" fill="#fff" stroke="#b54a5b" stroke-width="2"></circle><text x="192" y="263" font-size="12" text-anchor="middle">4</text></g><g data-step="5"><circle cx="222" cy="284" r="10" fill="#fff" stroke="#b54a5b" stroke-width="2"></circle><text x="222" y="289" font-size="12" text-anchor="middle">5</text></g><text x="348" y="70" font-size="13">1. 受器（膝蓋下方的肌腱）</text><text x="348" y="96" font-size="13">2. 感覺神經</text><text x="348" y="122" font-size="13">3. 脊髓（反射中樞）</text><text x="348" y="148" font-size="13">4. 運動神經</text><text x="348" y="174" font-size="13">5. 動器（大腿前側肌肉）</text><rect x="540" y="60" width="30" height="280" rx="5" fill="#f6e8c8"></rect><text x="534" y="44" font-size="15">接尺實驗</text><line x1="540" y1="60" x2="555" y2="60" stroke="#436779" stroke-width="3"></line><text x="576" y="65" font-size="12">0 cm</text><line x1="540" y1="88" x2="549" y2="88" stroke="#436779" stroke-width="3"></line><line x1="540" y1="116" x2="555" y2="116" stroke="#436779" stroke-width="3"></line><text x="576" y="121" font-size="12">10 cm</text><line x1="540" y1="144" x2="549" y2="144" stroke="#436779" stroke-width="3"></line><line x1="540" y1="172" x2="555" y2="172" stroke="#436779" stroke-width="3"></line><text x="576" y="177" font-size="12">20 cm</text><line x1="540" y1="200" x2="549" y2="200" stroke="#436779" stroke-width="3"></line><line x1="540" y1="228" x2="555" y2="228" stroke="#436779" stroke-width="3"></line><text x="576" y="233" font-size="12">30 cm</text><line x1="540" y1="256" x2="549" y2="256" stroke="#436779" stroke-width="3"></line><line x1="540" y1="284" x2="555" y2="284" stroke="#436779" stroke-width="3"></line><text x="576" y="289" font-size="12">40 cm</text><line x1="540" y1="312" x2="549" y2="312" stroke="#436779" stroke-width="3"></line><line x1="540" y1="340" x2="555" y2="340" stroke="#436779" stroke-width="3"></line><text x="576" y="345" font-size="12">50 cm</text><line data-catch="" x1="530" y1="172" x2="580" y2="172" stroke="#b54a5b" stroke-width="3"></line><rect x="574" y="161" width="62" height="20" rx="5" fill="#ffffff"></rect><text x="576" y="177" font-size="13" fill="#b54a5b">0.202 s</text><text x="20" y="392" font-size="12">紅圈＝路徑順序　藍線＝感覺神經（往中樞）　橘線＝運動神經（往動器）　尺上紅線＝抓住的位置</text></g></svg>